<?xml version="1.0" encoding="UTF-8" standalone="no"?>
<svg width="187px" height="62px" viewBox="0 0 187 62" version="1.1" xmlns="http://www.w3.org/2000/svg" xmlns:xlink="http://www.w3.org/1999/xlink">
    <!-- Generator: Sketch 3.8.3 (29802) - http://www.bohemiancoding.com/sketch -->
    <title>Artboard 1</title>
    <desc>Created with Sketch.</desc>
    <defs>
        <path d="M27.421875,0 C32.625,0 36,3.375 36,8.578125 L36,27.421875 C36,32.625 32.625,36 27.421875,36 L8.578125,36 C3.375,36 0,32.625 0,27.421875 L0,8.578125 C0,3.375 3.375,2.99999996e-24 8.578125,2.99999996e-24 L27.421875,0 L27.421875,0 Z" id="path-1"></path>
    </defs>
    <g id="Page-1" stroke="none" stroke-width="1" fill="none" fill-rule="evenodd">
        <g id="Artboard-1">
            <g id="logo-cuponeria-negativo-color" transform="translate(3.000000, 13.000000)">
                <g id="Page-1">
                    <g id="logo-cuponeria-negativo-color">
                        <g id="Group-2">
                            <g id="logo-cuponeria-negativo" transform="translate(45.000000, 9.000000)" fill="#FFFFFF">
                                <path d="M11.5,13.8 C11,13.7 10.7,13.9 10.3,14.1 C9.5,14.7 8.7,15 7.7,15 C6.5,15 5.5,14.6 4.7,13.7 C3.8,12.8 3.5,11.9 3.5,10.6 L3.5,8.1 C3.5,6.9 3.9,5.9 4.7,5 C5.6,4.1 6.5,3.7 7.7,3.7 C8.6,3.7 9.5,4 10.2,4.5 C10.4,4.7 10.7,4.8 11.1,4.8 L11.3,4.8 C11.7,4.7 12,4.5 12.3,4.2 C12.5,3.9 12.6,3.4 12.5,3 C12.4,2.6 12.3,2.2 11.9,2 C10.6,1.1 9.2,0.6 7.5,0.6 C5.5,0.6 3.8,1.3 2.4,2.7 C1,4.1 0.2,5.9 0.2,8 L0.2,10.5 C0.2,12.5 0.9,14.3 2.4,15.7 C3.8,17.1 5.5,17.9 7.5,17.9 L7.6,17.9 C9.2,17.9 10.6,17.4 12,16.5 C12.3,16.3 12.5,15.9 12.6,15.5 C12.7,15.1 12.6,14.6 12.4,14.3 C12.3,14.1 11.9,13.9 11.5,13.8 L11.5,13.8 L11.5,13.8 L11.5,13.8 Z" id="XMLID_115_"></path>
                                <path d="M29,1.8 C28.5,1.2 27.4,1.2 26.9,1.8 C26.6,2.1 26.4,2.5 26.4,2.9 L26.4,11.3 C26.4,12.5 26,13.5 25.2,14.3 C24.4,15.2 23.5,15.6 22.3,15.6 C21.2,15.6 20.3,15.2 19.5,14.3 C18.7,13.4 18.3,12.5 18.3,11.3 L18.3,3 C18.3,2.6 18.1,2.2 17.8,1.9 C17.3,1.3 16.2,1.3 15.7,1.9 C15.4,2.2 15.3,2.6 15.3,3 L15.3,11.3 C15.3,13.3 16,15.1 17.3,16.5 C18.6,17.9 20.3,18.7 22.2,18.7 L22.3,18.7 C24.3,18.7 25.9,18 27.2,16.5 C28.5,15.1 29.2,13.3 29.2,11.3 L29.2,3 C29.4,2.5 29.3,2.1 29,1.8 L29,1.8 L29,1.8 L29,1.8 Z" id="XMLID_114_"></path>
                                <path d="M44.8,2.9 C43.4,1.5 41.6,0.7 39.6,0.7 C37.6,0.7 35.9,1.4 34.5,2.9 C33.1,4.3 32.3,6.1 32.3,8.1 L32.3,21.4 C32.3,21.9 32.5,22.2 32.8,22.5 C33.1,22.8 33.5,23 33.9,23 C34.3,23 34.7,22.8 35,22.5 C35.3,22.2 35.5,21.8 35.5,21.4 L35.5,16.7 C36.7,17.6 38.2,18 39.8,18 C41.8,18 43.5,17.3 45,15.9 C46.4,14.5 47.1,12.7 47.1,10.6 L47.1,8.1 C46.9,6.1 46.2,4.4 44.8,2.9 L44.8,2.9 L44.8,2.9 L44.8,2.9 Z M43.8,8.1 L43.8,10.6 C43.8,11.8 43.4,12.8 42.6,13.6 C41.7,14.5 40.8,14.9 39.6,14.9 C38.4,14.9 37.4,14.5 36.6,13.6 C35.7,12.7 35.4,11.8 35.4,10.6 L35.4,8.1 C35.4,6.9 35.8,5.9 36.6,5.1 C37.5,4.2 38.4,3.8 39.6,3.8 L39.7,3.8 C40.9,3.8 41.9,4.2 42.7,5.1 C43.4,6 43.8,7 43.8,8.1 L43.8,8.1 L43.8,8.1 L43.8,8.1 Z" id="XMLID_111_"></path>
                                <path d="M80.9,2.9 C79.5,1.5 77.7,0.7 75.7,0.7 C73.7,0.7 72,1.4 70.6,2.9 C69.2,4.3 68.4,6.1 68.4,8.2 L68.4,16.5 C68.4,17 68.6,17.3 68.9,17.6 C69.4,18.2 70.5,18.2 71.1,17.6 C71.4,17.3 71.6,16.9 71.6,16.5 L71.6,8.1 C71.6,6.9 72,5.9 72.8,5.1 C73.7,4.2 74.6,3.8 75.8,3.8 C77,3.8 78,4.2 78.8,5.1 C79.7,6 80,6.9 80,8.1 L80,16.4 C80,16.9 80.2,17.2 80.5,17.5 C80.8,17.8 81.2,18 81.6,18 C82.1,18 82.4,17.8 82.7,17.5 C83,17.2 83.2,16.8 83.2,16.4 L83.2,8.1 C83.1,6.1 82.4,4.4 80.9,2.9 L80.9,2.9 L80.9,2.9 L80.9,2.9 Z" id="XMLID_110_"></path>
                                <path d="M99.3,10.6 C99.6,10.3 99.8,10 99.8,9.6 L99.8,8.3 C99.8,6.2 99.2,4.4 97.8,3 C96.5,1.6 94.8,0.9 92.8,0.9 C90.8,0.9 89.2,1.6 87.9,3 C86.6,4.4 85.9,6.1 85.9,8.3 L85.9,10.9 C85.9,12.9 86.6,14.7 88.1,16.2 C89.5,17.6 91.3,18.4 93.2,18.4 L93.3,18.4 C94.5,18.4 95.6,18.2 96.6,17.6 C97.6,17 98.5,16.3 99.2,15.4 C99.4,15.1 99.5,14.7 99.5,14.3 C99.4,13.9 99.3,13.6 98.9,13.3 C98.6,13.1 98.2,13 97.8,13 C97.4,13.1 97,13.2 96.8,13.6 C95.9,14.9 94.8,15.4 93.2,15.4 C92,15.4 90.9,15 90.1,14.1 C89.3,13.3 88.9,12.4 88.9,11.3 L88.9,11.2 L98.3,11.2 C98.7,11.1 99,10.9 99.3,10.6 L99.3,10.6 L99.3,10.6 L99.3,10.6 Z M88.9,8 L88.9,8 C89,6.7 89.3,5.8 90.1,5.1 C90.8,4.3 91.7,3.9 92.9,3.9 L93,3.9 C94.2,3.9 95,4.3 95.8,5.1 C96.5,5.9 96.9,6.8 96.9,7.9 L96.9,8 L88.9,8 L88.9,8 L88.9,8 L88.9,8 Z" id="XMLID_107_"></path>
                                <path d="M116.8,1.4 C116.2,0.8 115.2,0.8 114.6,1.4 C114.3,1.7 114.1,2.1 114.1,2.6 L114.1,16.5 C114.1,17 114.3,17.4 114.6,17.7 C114.9,18 115.3,18.2 115.7,18.2 C116.1,18.2 116.5,18 116.8,17.7 C117.1,17.4 117.3,17 117.3,16.5 L117.3,2.6 C117.3,2.2 117.1,1.8 116.8,1.4 L116.8,1.4 L116.8,1.4 L116.8,1.4 Z" id="XMLID_106_"></path>
                                <path d="M132.7,2.9 C131.2,1.5 129.5,0.7 127.4,0.7 C125.4,0.7 123.6,1.4 122.2,2.9 C120.7,4.4 120,6.1 120,8.3 L120,10.8 C120,12.8 120.7,14.7 122.2,16.1 C123.6,17.6 125.4,18.3 127.5,18.3 C129.1,18.3 130.5,17.8 131.8,17 C131.9,17.3 132,17.6 132.3,17.9 C132.6,18.2 133,18.4 133.4,18.4 C133.8,18.4 134.2,18.2 134.6,17.9 C134.9,17.6 135.1,17.2 135.1,16.8 L135.1,8.4 C134.9,6.2 134.1,4.4 132.7,2.9 L132.7,2.9 L132.7,2.9 L132.7,2.9 Z M131.7,8.2 L131.7,10.7 C131.7,11.9 131.3,12.9 130.5,13.8 C129.7,14.7 128.7,15.1 127.5,15.1 C126.3,15.1 125.3,14.7 124.5,13.8 C123.6,12.9 123.3,12 123.3,10.7 L123.3,8.2 C123.3,7 123.7,6 124.5,5.1 C125.4,4.2 126.3,3.8 127.5,3.8 L127.6,3.8 C128.8,3.8 129.8,4.2 130.6,5.1 C131.3,6 131.7,7 131.7,8.2 L131.7,8.2 L131.7,8.2 L131.7,8.2 Z" id="XMLID_103_"></path>
                                <path d="M111.4,1.2 C111.1,0.9 110.6,0.7 110.2,0.7 C109.3,0.7 108.6,0.9 108.2,1.2 C107.7,1.5 107.3,2 106.8,2.6 L106.3,3.5 L106.3,2.1 C106.3,1.7 106.1,1.3 105.8,1.1 C105.5,0.9 105.1,0.7 104.7,0.7 C104.2,0.7 103.9,0.9 103.6,1.2 C103.3,1.5 103.1,1.9 103.1,2.3 L103.1,16.8 C103.1,17.2 103.3,17.6 103.6,17.9 C103.9,18.2 104.3,18.4 104.7,18.4 C105.1,18.4 105.5,18.2 105.8,17.9 C106.1,17.6 106.3,17.2 106.3,16.8 L106.3,9.2 C106.3,8.2 106.5,7.4 106.8,6.8 C107.3,5.9 107.8,5.3 108.4,4.8 C108.7,4.6 109.1,4.4 109.6,4.2 L110.5,4 L111.4,3.5 C111.8,3.3 112,2.9 112,2.3 C112,1.9 111.8,1.5 111.4,1.2 L111.4,1.2 L111.4,1.2 L111.4,1.2 Z" id="XMLID_102_"></path>
                                <path d="M63.2,2.9 C61.6,1.4 59.8,0.7 57.6,0.7 L57.5,0.7 C55.3,0.7 53.4,1.4 51.9,2.9 C50.3,4.4 49.6,6 49.6,8.2 L49.6,10.7 C49.6,12.7 50.4,14.5 51.9,15.9 C53.5,17.4 55.3,18.1 57.5,18.1 L57.6,18.1 C59.8,18.1 61.7,17.4 63.2,15.9 C64.8,14.5 65.5,12.8 65.5,10.7 L65.5,8.1 C65.6,6.1 64.8,4.4 63.2,2.9 L63.2,2.9 L63.2,2.9 L63.2,2.9 Z M57.7,15 L57.7,15 C56.4,15 55.3,14.6 54.3,13.7 C53.4,12.8 53,11.8 53,10.6 L53,8.1 C53,6.9 53.5,5.9 54.3,5 C55.2,4.1 56.3,3.7 57.6,3.7 L57.7,3.7 C58.9,3.7 60.1,4.2 61,5 C61.9,5.9 62.4,6.9 62.4,8.1 L62.4,10.6 C62.4,11.8 61.9,12.8 61,13.7 C60,14.6 58.9,15 57.7,15 L57.7,15 L57.7,15 L57.7,15 Z" id="XMLID_96_"></path>
                            </g>
                            <g id="03">
                                <g id="App-Icon-Shape-Clipped">
                                    <mask id="mask-2" fill="white">
                                        <use xlink:href="#path-1"></use>
                                    </mask>
                                    <g id="path-1"></g>
                                    <g id="App-Icon-Shape" mask="url(#mask-2)" stroke="#F9D423" stroke-width="4" stroke-dasharray="5,3,5,3" fill="#E84048">
                                        <path d="M27.421875,0 C32.625,0 36,3.375 36,8.578125 L36,27.421875 C36,32.625 32.625,36 27.421875,36 L8.578125,36 C3.375,36 0,32.625 0,27.421875 L0,8.578125 C0,3.375 3.375,2.99999996e-24 8.578125,2.99999996e-24 L27.421875,0 L27.421875,0 Z" id="path-1"></path>
                                    </g>
                                </g>
                                <g id="Group" transform="translate(8.000000, 3.000000)" stroke-width="1.5" stroke="#FFFFFF" fill="#FFFFFF">
                                    <g id="%">
                                        <path d="M1.83300781,9.2703133 C1.83300781,8.1615838 2.18635714,7.24753044 2.89306641,6.5281258 C3.59977567,5.80872116 4.50748144,5.44902424 5.61621094,5.44902424 C6.74186761,5.44902424 7.6538051,5.81083703 8.35205078,6.53447346 C9.05029646,7.25810989 9.39941406,8.19543775 9.39941406,9.34648517 L9.39941406,10.2478524 C9.39941406,11.3650454 9.04606473,12.2769829 8.33935547,12.9836922 C7.63264621,13.6904015 6.7334039,14.0437508 5.64160156,14.0437508 C4.54133564,14.0437508 3.63151401,13.6904015 2.91210938,12.9836922 C2.19270474,12.2769829 1.83300781,11.3354233 1.83300781,10.1589852 L1.83300781,9.2703133 Z M3.58496094,10.2478524 C3.58496094,10.9080119 3.77115699,11.451789 4.14355469,11.8792 C4.51595238,12.306611 5.01529635,12.5203133 5.64160156,12.5203133 C6.24251603,12.5203133 6.72704894,12.3129586 7.09521484,11.898243 C7.46338075,11.4835274 7.64746094,10.9164758 7.64746094,10.1970711 L7.64746094,9.2703133 C7.64746094,8.61015375 7.46549661,8.06426077 7.1015625,7.63261799 C6.73762839,7.2009752 6.24251615,6.98515705 5.61621094,6.98515705 C4.98990572,6.98515705 4.49479349,7.2009752 4.13085938,7.63261799 C3.76692526,8.06426077 3.58496094,8.62708066 3.58496094,9.32109455 L3.58496094,10.2478524 Z M10.8339844,19.6677742 C10.8339844,18.5590447 11.1873337,17.6471072 11.894043,16.9319344 C12.6007522,16.2167615 13.508458,15.8591805 14.6171875,15.8591805 C15.725917,15.8591805 16.6357386,16.2146457 17.3466797,16.9255867 C18.0576207,17.6365278 18.4130859,18.5802033 18.4130859,19.7566414 L18.4130859,20.6580086 C18.4130859,21.7667381 18.0597366,22.6786756 17.3530273,23.3938485 C16.6463181,24.1090213 15.742844,24.4666024 14.6425781,24.4666024 C13.5423122,24.4666024 12.6324906,24.113253 11.9130859,23.4065438 C11.1936813,22.6998345 10.8339844,21.7582749 10.8339844,20.5818367 L10.8339844,19.6677742 Z M12.5859375,20.6580086 C12.5859375,21.3266317 12.7721336,21.8746406 13.1445312,22.3020516 C13.5169289,22.7294626 14.0162729,22.9431649 14.6425781,22.9431649 C15.2519562,22.9431649 15.738605,22.7336943 16.1025391,22.3147469 C16.4664732,21.8957995 16.6484375,21.326632 16.6484375,20.6072274 L16.6484375,19.6677742 C16.6484375,18.9991511 16.4643573,18.4532581 16.0961914,18.0300789 C15.7280255,17.6068997 15.2350291,17.3953133 14.6171875,17.3953133 C14.016273,17.3953133 13.5275084,17.6047839 13.1508789,18.0237313 C12.7742494,18.4426787 12.5859375,19.0076144 12.5859375,19.7185555 L12.5859375,20.6580086 Z M6.17480469,22.8035164 L4.84179688,21.9656258 L13.8681641,7.51836017 L15.2011719,8.3562508 L6.17480469,22.8035164 Z"></path>
                                    </g>
                                </g>
                            </g>
                        </g>
                    </g>
                </g>
            </g>
        </g>
    </g>
</svg>